<?xml version="1.0" encoding="UTF-8"?>
<svg id="Layer_2" data-name="Layer 2" xmlns="http://www.w3.org/2000/svg" viewBox="0 0 2535.64 732.69">
  <defs>
    <style>
      .cls-1 {
        fill: #fff;
      }

      .cls-2 {
        fill: orange;
      }
    </style>
  </defs>
  <g id="_Слой_1" data-name="Слой 1">
    <g>
      <g>
        <polygon class="cls-2" points="424.19 484.61 280.96 615.18 0 615.18 0 225.87 137.72 286.1 137.72 484.61 424.19 484.61"/>
        <polygon class="cls-2" points="561.91 225.87 561.91 615.18 424.19 732.69 424.19 286.1 280.96 170.97 137.72 286.1 137.72 115.13 280.96 0 561.91 225.87"/>
      </g>
      <g>
        <path class="cls-1" d="m716.44,609.66V142.75h86.37v398.07h195.37l-2.55,68.84h-279.19Z"/>
        <path class="cls-1" d="m1142.24,616.35c-32.51,0-58.8-8.97-78.88-26.93-20.08-17.95-30.12-43.82-30.12-77.6,0-36.33,11.9-63.26,35.69-80.79,23.8-17.53,59.7-28.63,107.72-33.31,6.58-.85,13.71-1.7,21.35-2.55,7.65-.85,16.25-1.7,25.82-2.55,9.56-.85,17.1-1.59,22.63-2.23v-18.48c0-21.24-4.89-36.7-14.66-46.37-9.78-9.67-24.65-14.5-44.62-14.5-28.47,0-63.64,7.97-105.49,23.9-.22-.64-3.72-10.3-10.52-29-6.8-18.69-10.31-28.26-10.52-28.68,41.22-17.63,85.84-26.45,133.86-26.45s81.48,10.25,102.94,30.75c21.46,20.51,32.19,53.7,32.19,99.6v228.52h-61.83c-.21-.85-2.55-7.97-7.01-21.35-4.46-13.39-6.69-20.5-6.69-21.35-17.42,17-34.48,29.48-51.15,37.45-16.68,7.97-36.92,11.95-60.71,11.95Zm22.63-59.28c19.33,0,36.17-4.62,50.52-13.86,14.34-9.24,24.59-20.45,30.75-33.62v-67.57c-.64,0-6.21.43-16.73,1.27-10.52.85-16.21,1.28-17.05,1.28-33.78,2.98-58.54,9.35-74.26,19.12-15.73,9.78-23.58,25.5-23.58,47.17,0,14.88,4.35,26.29,13.07,34.26,8.71,7.97,21.14,11.95,37.29,11.95Z"/>
        <path class="cls-1" d="m1413.78,609.66v-350.26h67.25l9.24,44.3c35.7-35.27,75.32-52.91,118.88-52.91,40.8,0,71.34,11.74,91.63,35.22,20.29,23.48,30.44,57.53,30.44,102.15v221.5h-83.82v-211.31c-.21-28.26-4.78-49.4-13.7-63.42-8.92-14.02-24.97-21.04-48.13-21.04-18.06,0-34.58,4.62-49.56,13.86-14.98,9.24-25.87,20.88-32.67,34.9-4.04,16.57-6.06,42.07-6.06,76.49v170.51h-83.5Z"/>
        <path class="cls-1" d="m1943.8,616.35c-45.69,0-81.59-16.78-107.72-50.36-26.13-33.57-39.2-78.4-39.2-134.5s13.01-98.11,39.04-131.15c26.02-33.04,61.88-49.56,107.56-49.56,49.72,0,84.88,17.64,105.49,52.91-2.13-20.82-3.19-40.9-3.19-60.24v-113.14l83.5-5.42v484.76h-72.35l-9.24-47.81c-3.61,5.74-6.96,10.68-10.04,14.82-3.08,4.14-7.6,8.92-13.55,14.34-5.95,5.42-12.38,9.78-19.28,13.07-6.91,3.3-15.62,6.16-26.13,8.6-10.52,2.44-22.15,3.66-34.9,3.66Zm19.76-63.42c56.09,0,84.56-38.14,85.41-114.42,0-43.13-7.23-74.58-21.67-94.34-14.45-19.76-36.02-29.64-64.7-29.64-25.08,0-45.1,10.04-60.08,30.12-14.98,20.08-22.47,49.67-22.47,88.76s7.49,68.52,22.47,88.92c14.98,20.4,35.32,30.6,61.03,30.6Z"/>
        <path class="cls-1" d="m2364.81,616.35c-51.84,0-92.64-16.78-122.39-50.36-29.75-33.57-44.62-77.77-44.62-132.58s14.87-101.08,44.62-133.7c29.74-32.61,71.71-48.92,125.89-48.92s93.22,16.63,122.86,49.88c29.64,33.26,44.46,77.5,44.46,132.74s-14.98,100.34-44.94,133.38c-29.96,33.04-71.92,49.56-125.89,49.56Zm2.23-63.42c28.26,0,49.51-10.3,63.74-30.92,14.23-20.61,21.35-50.14,21.35-88.6s-7.12-68.52-21.35-88.92c-14.24-20.4-35.7-30.6-64.38-30.6s-49.56,10.25-63.9,30.75c-14.34,20.51-21.51,50.2-21.51,89.08s7.22,67.68,21.67,88.28c14.45,20.61,35.91,30.92,64.38,30.92Z"/>
      </g>
    </g>
  </g>
</svg>