<?xml version="1.0" encoding="UTF-8"?>
<svg viewBox="0 0 1931.1 396.56" xmlns="http://www.w3.org/2000/svg">
 <g transform="matrix(.3151 0 0 .3151 470.73 -209.51)">
  <path d="m-1495.6949,1663.3971v-254.9758l16.75-.2742 16.75-.2742 .2627-18.5c.2302-16.2059.4782-18.6627 2-19.8118 1.649-1.2451 1.6483-1.3779-.013-2.6103-2.4608-1.8258-2.1753-5.9439.7314-10.5483 2.0378-3.2282 2.6513-5.9501 3.4326-15.2301 .5232-6.2147.9482-11.9745.9444-12.7995s.178-3.8952.404-6.8227c.3163-4.0947-.013-5.8614-1.4256-7.6577-1.0102-1.2843-1.8368-3.5195-1.8368-4.9672s-.8971-4.3906-1.9936-6.54l-1.9937-3.9079 2.2162-1.5522c1.2189-.8538 3.241-1.5523 4.4936-1.5523s2.3141-.3375 2.3588-.75 .232-2.1.4164-3.75 .597-9.75.9172-18 .8206-18.1968 1.1121-22.1039c.4291-5.7518.2245-7.3575-1.0751-8.436s-1.478-2.4788-.9329-7.3961c.5235-4.7226 1.6538-7.6542 5.1095-13.2528 2.4979-4.0468 5.8433-8.0362 7.6544-9.1279 5.2029-3.136 13.1134-4.5212 21.7207-3.8034 8.5513.7132 9.5216.2442 10.5946-5.1207 .5287-2.6433.2293-3.2367-2.2441-4.4479-2.4268-1.1883-2.8113-1.9129-2.5683-4.8402 .1572-1.8935.7417-3.8991 1.299-4.4569 1.4583-1.4597 71.1518-1.8128 101.4788-.5141 22.6871.9714 41.0715,2.2365 48.9364,3.3672 1.65.2372 3.5596-.026 4.2435-.585 .8636-.7059 2.3147-.5081 4.75.6476 3.3525,1.5909 3.5065,1.8947 3.5065,6.917 0,2.8892-.5265,5.7796-1.1699,6.4231-.8933.8933-.8655,2.1821.1179,5.45 .7083,2.354 1.4239,4.7858 1.5902,5.404 .1978.7354 5.4292,1.3148 15.1321,1.6759 8.1563.3035 22.7047,1.2559 32.3297,2.1163s23.8,2.0316 31.5,2.6025 14.6262,1.2605 15.3915,1.5325c1.8606.6614.7019,14.1357-1.417,16.477-.811.8961-1.4745,2.6942-1.4745,3.9958s-1.1703,3.5881-2.6007,5.0811c-2.4722,2.5805-2.6489,3.4971-3.576,18.5547-.5363,8.7121-1.0535,20.5652-1.1492,26.3402l-.1741,10.5 3.8059.3137c4.6222.381 5.5655,2.263 2.859,5.7039-1.1146,1.417-2.341,4.0177-2.7252,5.7794s-1.7653,4.475-3.0691,6.0297c-2.0136,2.4011-2.4048,4.0574-2.5976,11-.1249,4.4953-.3523,11.0983-.5054,14.6733-.153,3.575-.2689,13.75-.2573,22.6112s-.3811,18.9861-.8725,22.5c-1.2165,8.6988.1126,17.8634 2.9204,20.137 1.1899.9635 2.9232,1.7518 3.8518,1.7518 2.3301,0 1.5783-6.2481-1.0366-8.6145-1.8853-1.7063-1.8659-1.799 1.0077-4.8126 2.8333-2.9715 2.9537-3.5021 3.6472-16.0729 .3945-7.15.8349-17.05.9786-22 .5598-19.2776 1.731-30.9674 3.2812-32.75 1.3405-1.5414 3.5974-1.75 18.9327-1.75 18.1928,0 21.2792.6008 21.2792,4.1422 0,1.256.4922,1.876 1.25,1.5745 13.4577-5.3536 18.8875-5.7167 85.4929-5.7167 32.52646,0 59.36116-.3594 59.63266-.7987s.634-6.9253.8056-14.4134l.312-13.6146 8.5034-.5169c4.6769-.2843 12.935-.549 18.3514-.5882s10.2538-.3221 10.75-.6287 .902-4.8283.902-10.0482c0-12.5341 1.0302-14.5134 8.6834-16.6839 3.1991-.9073 12.5666-2.1648 20.8166-2.7944 17.0305-1.2997 17.09-1.3009 31.9653-.6642 12.8986.552 17.5347-.6978 17.5347-4.727 0-1.4428.8381-2.9 2.037-3.5416 1.415-.7573 17.3683-.997 52.25-.7852l50.213.305 .5,6 .5,6 20,.613c11,.3371 24.3151.6538 29.5892.7037 7.3494.07 9.8889.4519 10.8724,1.637 1.9044,2.2947 7.7239,2.0025 9.0384-.4537 1.4455-2.701 3.996-2.5183 6.4625.4627 1.7911,2.1648 3.0656,2.5267 10.5375,2.9919 19.8732,1.2373 30.1442,2.4202 31.615,3.6409 1.32,1.0954 1.4967,3.5093 1.143,15.6186-.4629,15.8473.1179,17.7607 4.6535,15.3333 1.9299-1.0329 2.762-.9898 4.7159.2442 2.9508,1.8636 13.6808,2.8111 14.6546,1.2942 .3833-.5972.9267-3.5608 1.2075-6.5858l.5105-5.5 44.5-.1148c36.1854-.093 45.0139.145 47.25,1.2757 3.1439,1.5896 3.0125.7493 2.7617,17.6617-.1627,10.9658.062,13.1017 1.554,14.75 2.3062,2.5483 3.2475,2.4315 4.6163-.5726 1.442-3.1649 2.8542-3.1549 5.8571.042 1.3744,1.463 3.2519,2.4178 4.4243,2.25 2.535-.363 3.2094-5.215 4.002-28.7916 .3051-9.075.7614-17.625 1.014-19 1.6897-9.1968 3.5441-26.4618 3.3832-31.5-.1054-3.3.3473-16.8 1.0059-30s1.5998-32.1 2.0915-42 .9268-24.1313.967-31.625c.084-15.7678.6544-19.5806 3.1242-20.9024 .9829-.5261 5.2254-1.059 9.4279-1.1843s8.0126-.6914 8.467-1.2581 1.079-7.7802 1.3878-16.0302 1.0473-25.125 1.6411-37.5c1.0771-22.4507 1.808-43.4595 2.4004-69 .5199-22.41435 1.7665-48.28591 2.5037-51.96112 .6099-3.04078 1.2016-3.58727 4.8722-4.5 2.2978-.5714 4.8256-1.92945 5.6173-3.01789 .8195-1.12671 3.5264-2.42206 6.2854-3.00778l4.846-1.0288 .1695-10.49221c.093-5.77072.6505-20.16722 1.2384-31.99222 1.7341-34.88402 1.9754-40.10293 3.2594-70.5 .6738-15.95 1.3201-34.175 1.4364-40.5 .5371-29.21986 1.9247-52.92905 3.1705-54.17458 1.3947-1.39428 8.7744-1.71489 11.3279-.49214 1.1194.53603 2.0752.0451 3.1724-1.62952 1.2037-1.837 1.6333-5.73009 1.8399-16.67075 .266-14.08809.9639-17.03301 4.0366-17.03301 3.4059,0 20.5914-2.36798 21.7596-2.99824 .7759-.41858 1.9009-2.25799 2.5-4.08757 1.6541-5.05099 8.6189-9.91419 14.1985-9.91419 5.1361,0 5.9913,1.16608 4.5864,6.25397-1.7045,6.17319 1.2694,8.35662 6.8732,5.04636 2.7853-1.64529 2.9569-1.62487 5.3659.63827 2.3567,2.21401 3.0075,2.30856 12.277,1.78384 5.3836-.30476 14.391-.0878 20.0163.48224l10.228,1.03633 5.6026-5.1205c7.6653-7.00559 11.5679-6.85959 9.575.3582-.5324,1.92806-.5817,3.74429-.1096,4.03605 1.7125,1.05837 16.2269,1.522 17.3914.55553 .6512-.54041 2.9616-1.26444 5.1343-1.60895 3.1988-.50721 4.6354-.16008 7.5511,1.82466 2.6837,1.82685 5.485,2.60624 11,3.06048l20.8993,1.73588c7.7582.64734 14.4203,1.70577 15.6637,2.48855 1.1901.74916 3.4401,1.35389 5,1.34383 4.9535-.0319 15.5017,1.85067 16.6167,2.96569 1.1532,1.15321 1.218,8.512.1704,19.35431-.3579,3.7041-.3366,9.4416.047,12.75 .7757,6.6834 1.9086,7.41366 6.2289,4.01526 2.9083-2.28764 6.529-2.60125 8.1052-.70204 .5925.71388 1.1695,4.65138 1.2823,8.75 .2236,8.12642-1.4865,58.18183-3.0219,88.45204-.53,10.45-.9425,19.9-.9166,21s-.5262,15.5-1.2268,32c-1.4263,33.58719-1.4513,34.52305-1.1588,43.25 .1817,5.42169.4637,6.25 2.1277,6.25 3.2411,0 5.0818,1.12542 5.0818,3.10699 0,1.04115-.5748,1.89301-1.2773,1.89301-1.6159,0-6.7227,5.75154-6.7227,7.57144 0,.75119.573,1.14593 1.2732.87721 .7442-.28558 1.7469.76618 2.4132,2.53138 1.1127,2.94808 3.5894,4.0007 4.8009,2.04045 .3601-.58263 1.2957-.63029 2.3091-.11763 .937.47404 3.007,1.25233 4.6,1.72952s3.2106,1.54263 3.5946,2.36763c.384.825 1.2439,2.54776 1.911,3.82836 .9222,1.77042.9348,2.66336.053,3.72636-1.8659,2.24822-2.8866,26.2433-1.2891,30.3015 .7267,1.8459 1.0514,3.7929.7215,4.3265s-.7161,2.3984-.8585,4.1438-.7201,5.4235-1.2838,8.1735-1.102,11.7253-1.1964,19.9451-.397,15.3101-.6727,15.7561-.696,8.0575-.9342,16.9142-.882,18.8664-1.4309,22.2438-.7146,10.8718-.3683,16.6542l.6298,10.5135 4.114-.3759c2.2627-.2068 4.7344-.8879 5.4927-1.5135s3.2333-1.608 5.5-2.1831l4.1213-1.0455 .7019-16.4545c.386-9.0499.9209-24.1044 1.1886-33.4544 .4301-15.02 2.0864-57.0489 4.4635-113.26314 .4998-11.82052 1.1919-18.6828 1.9619-19.45279 1.6223-1.62231 14.0198-2.34838 15.4626-.90558 .6168.61682 1.5966,1.12149 2.1774,1.12149 2.5946,0 3.4027-6.43165 4.081-32.47748 .3863-14.83762.8738-29.23762 1.0832-32s.8151-16.72252 1.3461-31.02252c1.1904-32.0614 1.6348-43.24195 2.9814-75 .583-13.75 1.2893-31.9151 1.5694-40.36688s.7722-15.79204 1.0934-16.31168c1.0238-1.65662 5.3903-2.83093 11.0078-2.96044 4.1447-.0956 5.6845-.55804 6.4175-1.92761 .5303-.99105.9643-8.52639.9643-16.7452 0-11.12711.3358-15.22195 1.3147-16.03443 .7231-.60013 6.6856-1.5896 13.25-2.19883 13.9983-1.29914 21.4792-2.59882 22.8502-3.96979 1.5302-1.53021 7.8892-1.16084 10.4099.60467 1.7015,1.19182 3.6973,1.45365 7.9725,1.0459l6.7027-.63838c.55-.052 10.7264.0879 22.6142.31085l21.6142.40531 2.6785-3.35674c2.6979-3.38123 5.5091-4.42179 5.6916-2.10675 .054.6875.1667,2.375.25,3.75 .1509,2.49035.1946,2.50109 11.3247,2.78203 9.7699.24662 11.5909.0273 14.5-1.74626 4.9626-3.02561 9.427-2.70957 11.2396.79567 1.4579,2.81929 1.5278,2.83671 16.2757,4.05562 28.9344,2.39144 33.4296,3.08842 39.9342,6.19179 3.3675,1.60663 6.7076,2.92115 7.4224,2.92115 2.2094,0 8.6965,3.41072 9.8024,5.15382 .7127,1.1232.7507,4.49208.1187,10.5-.5119,4.8654-.9387,12.50358-.9484,16.97374-.021,9.36447.8308,10.66746 6.6553,10.18697 3.0171-.2489 4.0864-.88838 5.12443-3.06453 .7214-1.5125 1.7482-2.75 2.2818-2.75 2.4592,0 3.1253,5.75532 2.3149,20-.4537,7.975-.9041,19.225-1.0008,25-.4582,27.35779-1.3941,50.26918-2.3693,58-.5897,4.675-.9564,12.775-.8148,18s-.3653,21.65-1.12643,36.5c-1.4797,28.86849-2.291,50.86512-2.4712,67l-.1117,10 4.92693-.26021c5.8154-.30715 6.7365-.91594 4.1961-2.77351-2.3989-1.75413-1.4174-4.47832 1.5956-4.42873 1.2548.0207 3.9821,1.49414 6.0607,3.27443 4.5763,3.91962 4.4845,2.55593 2.6723,39.68802-.7113,14.57502-1.4058,31.45002-1.5433,37.50002s-.7506,23.15-1.3625,38c-1.5881,38.5393-2.363,59.9514-2.4608,68-.08,6.6005.048,7.0188 2.2475,7.3303 1.2828.1817 3.1884-.4443 4.2346-1.3911 1.5137-1.3698 2.9778-1.5941 7.1676-1.098 2.8959.3428 5.7497,1.2855 6.3418,2.0949s.9762,4.5298.8537,8.2677-.5001,14.8962-.8391,24.7962-.8474,25.875-1.1297,35.5-.9984,30.1-1.5912,45.5-1.2478,33.4-1.4556,40-.5622,17.625-.7875,24.5-.6895,21.05-1.0313,31.5-.85,27.55-1.1293,38c-1.2761,47.7445-2.1171,64.0286-3.4324,66.4614-1.0633,1.9666-1.194,7.7967-.6505,29 .7453,29.078 1.0194,30.3396 7.0249,32.3414 2.2117.7373 3.3501.5125 5.5167-1.0894 3.2851-2.4288 10.4296-3.2062 28.5102-3.1023l12.9354.074 2.7158,2.9073c1.4937,1.599 3.4079,2.9073 4.2538,2.9073s3.6177-1.8 6.1596-4c4.5419-3.931 4.7564-4 12.4349-4 6.5921,0 8.5752.4185 12.6891,2.6781 2.6818,1.4729 6.3561,4.1687 8.1652,5.9907s4.509,3.5785 6,3.9033 3.8358.9673 5.2108,1.4279 3.7511,1.111 5.2803,1.4454c2.0842.4557 2.9308,1.3601 3.3811,3.6118 .7046,3.5226 4.6211,6.9428 7.9504,6.9428 4.9692,0 5.054-.8512 5.3283-53.5 .1404-26.95.4066-54.625.5915-61.5 .577-21.454 2.5246-60.282 3.0679-61.161 .7007-1.1338 6.6806-1.0632 9.7808.1155 1.923.7311 2.9861.5556 4.5426-.75 1.6256-1.3635 2.0866-3.1049 2.3046-8.7045l.2725-7 4,.2584c2.2.1421 7.375.266 11.5.2752s8.8977.469 10.606,1.0216c5.2303,1.6921 8.1283-.1006 8.9428-5.5321 .4446-2.9646 1.3502-4.9339 2.5689-5.5861 1.732-.9269 1.8823-2.3923 1.8823-18.3497 0-14.1955.2722-17.5683 1.5-18.5873 1.1019-.9145 1.5095-3.4018 1.536-9.3724 .031-7.0828.3467-8.5078 2.4534-11.0856l2.4175-2.9581 25.614.075c17.8393.053 25.9621.4236 26.7609,1.2224 .7547.7547 1.0657,4.9047.9092,12.1326l-.2378,10.9856h9.6191c7.1209,0 10.3403.426 12.396,1.6404 4.0249,2.3775 7.7636,1.1734 8.8023-2.8351 .9784-3.7755 3.3586-5.0983 2.9826-1.6575-.2376,2.1738.2045,2.3676 7.1667,3.142 4.0809.4539 8.9108,1.4483 10.733,2.2096l3.3131,1.3843 .267,25.8082 .267,25.8081 27.917.2661c18.9938.1811 28.3541.629 29.2849,1.4014 .962.7984 1.2978,3.1754 1.1317,8.0099-.2157,6.2781 0,7.1067 2.4398,9.5505 2.2725,2.2725 3.0836,2.5325 5.3797,1.724 1.6739-.5893 2.9781-1.9782 3.424-3.6465 .9836-3.6796 2.4736-33.6194 3.4492-69.3054 1.2772-46.7168 3.5266-98.6636 4.4818-103.5 2.4568-12.4392 2.9713-21.5018 1.8661-32.8724-1.4827-15.2531 1.6075-109.1413 3.7289-113.2943 .8439-1.6522 2.7954-3.1248 5.1295-3.8708 2.0721-.6623 4.1765-1.5813 4.6765-2.0424s2.8433-.5731 5.2075-.2491c3.2182.4411 5.4373.054 8.83-1.5409 5.2346-2.4606 5.9241-2.54 8.4345-.9723 2.399,1.4982 5.1189.4334 5.1189-2.004 0-1.0499.5625-2.3594 1.25-2.9101 1.5703-1.2577 21.2314-3.6823 22.6667-2.7952 .7099.4387.5431,1.4462-.5038,3.0441-1.542,2.3534-1.509,2.3977 2.2611,3.0392 2.1043.3581 5.401,1.0574 7.326,1.554 1.925.4967 5.8137.9055 8.6416.9086 4.6075.01 5.2047-.2458 5.7491-2.415 .3341-1.3312.3362-3.1275 0-3.9915-.3698-.9635.062-1.8263 1.117-2.231 .946-.363 17.7401.1558 37.3203,1.153 31.5123,1.6049 35.9802,2.0372 38.908,3.7646l3.3075,1.9515-2.5999,2.4095c-1.43,1.3252-2.424,2.9374-2.209,3.5825 .4847,1.4541 5.6889,2.9304 7.8881,2.2377 2.2651-.7136 18.973-.6917 33.8495.044 9.9435.4919 13.127,1.019 15.6788,2.5961 3.8517,2.3805 5.2214,6.9086 3.0837,10.1945-2.1827,3.3549-2.7726,11.217-1.0284,13.7072 1.1123,1.588 1.2948,3.6642.7727,8.7906-.3759,3.6913-.6226,12.5234-.5481,19.6267 .1056,10.0668-.2231,13.6709-1.4904,16.3415-1.1609,2.4466-1.4605,4.9015-1.0474,8.5848 1.7929,15.9893 1.805,17.2373.2051,21.0666-1.8841,4.5093-2.1135,13.8014-.4081,16.5322 .9286,1.487.9165,3.544-.055,9.2364-2.0518,12.0267-2.4341,17.9294-1.2385,19.125 1.7224,1.7224 1.3629,12.8758-.5008,15.5366-1.141,1.629-1.4303,3.4838-1.0094,6.4725 1.4982,10.6411 1.8226,19.7265.7504,21.0184-1.2664,1.5259-1.4999,9.7052-.5874,20.5722 .4197,4.9973.2273,8.1381-.5924,9.6697-.8253,1.5421-.9876,4.2953-.507,8.5987 .9401,8.4166.6847,17.7007-.5503,20.0083-.6226,1.1634-.7383,6.5579-.3072,14.3176 .4944,8.8989.3604,12.8503-.47,13.8507-.7557.9106-.9541,3.4538-.5677,7.2768 1.6349,16.1765 1.6248,19.4681-.071,23.0409-1.1913,2.5104-1.4881,4.7464-1.0206,7.688 .3625,2.2814.8948,7.5208 1.1829,11.6431s1.0092,7.7952 1.6026,8.1619 2.1969.2418 3.5633-.2777c2.0015-.7609 2.9408-.5156 4.8334,1.2624 1.9873,1.8669 2.3492,3.1853 2.3492,8.5574 0,5.8536.1956,6.4248 2.5,7.3009 1.9906.7568 2.5,1.6438 2.5,4.3528 0,1.8713.5625,3.8573 1.25,4.4134s5.2984,1.5428 10.2465,2.1925c9.6429,1.2663 15.0013,3.2343 16.517,6.0665 .5193.9704 2.3038,2.2384 3.9654,2.8176 2.454.8555 3.0211,1.615 3.0211,4.0462 0,1.6461-.4976,3.3005-1.1057,3.6763-.7106.4392-.145,1.5742 1.5828,3.1763 1.9293,1.7889 2.3827,2.7986 1.6057,3.5756-1.9927,1.9927-1.116,4.2904 3.4594,9.0655l4.5422,4.7405 11.2078-.4901c6.1643-.2696 11.8828-.6012 12.7078-.7369 .825-.1357 2.9625.093 4.75.508 3.1855.7397 3.25.6861 3.25-2.7023 0-1.9014.5625-3.9006 1.25-4.4427s5.3643-1.2639 10.3929-1.604c7.4032-.5006 9.3769-.3363 10.3725.8633 .833,1.0037 3.1409,1.4815 7.1567,1.4815 7.7509,0 11.8279,2.0437 11.8279,5.9292 0,2.7339.2624,2.9057 5.25,3.4369 2.8875.3075 5.7.5465 6.25.5312 4.9939-.1388 14.0076.1526 18.5.5981l10.5,1.0382c2.75.271 6.5593.5121 8.4651.5357s3.9309.3895 4.5.8131 4.3219.8456 8.3393.9378c9.6632.2218 10.7674.9163 11.5168,7.2436 .7712,6.5121 1.9837,7.9362 6.75681,7.9362 2.4397,0 5.1725.9089 7.5171,2.5 2.0262,1.375 4.4891,2.5 5.473,2.5 1.8934,0 4.9319-2.5084 4.9319-4.0714 0-.5107.9-.9286 2-.9286s2,.5164 2,1.1476c0,.8379 2.6311.9388 9.75.3738 12.6393-1.0032 11.581-1.1043 20.25,1.9347 15.817,5.5449 22.4246,6.3667 53.1803,6.6138 2.1737.017 3.2425,1.0053 5.654,5.2258 4.3316,7.581 14.4777,17.5 20.9156,20.4473 4.7091,2.1559 6.2421,2.3912 11.5885,1.7788 3.3889-.3882 9.4416-.6376 13.4506-.5542 9.9643.2073 16.8119-1.9328 21.3555-6.6742 6.1527-6.4206 7.3103-9.6034 7.5626-20.7934 .6007-26.649.9571-32.1143 2.2495-34.5 .7448-1.375 1.6678-3.175 2.051-4 1.0979-2.3639 4.709-2.338 8.0736.058 2.5632,1.8252 4.6889,2.2442 12.5723,2.4782 6.6988.1988 9.9811.7226 11.167,1.782 .9237.8253 3.2545,1.6538 5.1795,1.8412 3.2753.3189 3.5082.1482 3.628-2.6592 .1708-4.0039 1.2754-13.9465 2.1585-19.4297 .94-5.8361 3.2455-6.5021 17.2135-4.9728 17.6847,1.9362 21.6684,3.1551 25.698,7.8628 4.1656,4.8666 8.0054,7.0337 12.5023,7.0562 1.8149.01 6.6747.8358 10.7997,1.8374l7.5,1.8209 .084,5.7111c.1396,9.4706 2.7809,10.5534 25.8339,10.5902 15.778.025 26.643,1.371 30.2831,3.7508 3.3677,2.2018 4.1515,9.3737 1.4058,12.8642-3.9755,5.0541-2.5309,8.4675 4.6248,10.9275 4.2908,1.4751 5.0199,3.1364 5.1685,11.7769 .083,4.799.5372,6.2329 2.6442,8.3399 1.7348,1.7348 3.0871,2.3114 4.25,1.8121 .938-.4027 3.9027-1.0452 6.5882-1.4276 4.2236-.6015 5.4595-1.3585 9.1549-5.6076l4.2722-4.9123 10.4367.2444c8.9679.21 11.4488-.1091 17.6275-2.2678 4.8627-1.699 7.7468-2.2254 8.9084-1.6261 .9447.4874 3.4726,1.2035 5.6177,1.5913s5.6683,2.1262 7.8295,3.863c3.4597,2.7803 3.8517,3.5187 3.2784,6.1765-2.9319,13.5927-1.3519,16.5187 8.9194,16.5187 8.9275,0 10.1787-1.6801 10.9976-14.7679 1.2963-20.719 3.4302-27.1831 8.9993-27.2612 1.1416-.016 5.2257-.9172 9.0757-2.0027 15.7987-4.4543 15.992-4.4708 51.1083-4.3795 18.7596.049 34.8471.3721 35.75.7186 1.5155.5815 1.6417,17.8529 1.6417,224.6613l.01,224.0315h-1536.00004-1535.99996v-254.9758zm1747.19999-92.2242c-.6417-.6417-1.4986-.8347-1.9044-.429s-.089,1.1388.7044,1.629c1.8676,1.1542 2.7109.3109 1.2-1.2zm-416.70373-609.80408c-3.4646-3.82837 1.6653-9.43437 5.3037-5.79594 2.4076,2.40759.7864,7.8-2.345,7.8-.6298,0-1.9612-.90183-2.9587-2.00406z"/>
  <path d="m1848.073,1919.4676c-4.2926-1.9709-6.4433-2.0015-140.75-2.0015h-136.3908v-265.9847l-.4576-244.4761 16.1231.7777 5.9677-1.6354 11.2935.3185c5.9669.1683 8.0733,2.1981 8.0733,8.4343 0,3.0581.5316,5.7449 1.25,6.3181 .7457.5949 17.7909,1.3261 42.25,1.8124 51.994,1.0336 51.8964,1.0309 64.8921,1.8094 7.4068.4437 11.9364.2749 14.1556-.5276 2.4396-.8822 5.7488-.9138 13.1079-.1252 8.1593.8743 10.3274.8065 12.6662-.3961 3.0646-1.5758 6.0134-.3624 5.0732,2.0876-.6684,1.7418 1.5951,3.4128 4.605,3.3995 14.6123-.064 18.5923,2.3436 17.6555,10.6828-.3092,2.7526-.8477,8.8298-1.1967,13.5048-.8461,11.3352-.1423,12.283 9.527,12.8294 3.9622.2238 8.1737-.062 9.3591-.6359 2.4495-1.1853 6.9729-2.2532 10.6551-2.5155 1.8985-.1352 2.5769.3633 2.8195,2.072 .2639,1.858.9608,2.2576 4,2.2939 2.0243.024 5.4805.6924 7.6805,1.4849s5.057,1.4479 6.3489,1.4561 3.7668.6534 5.5,1.4335c4.1538,1.8698 16.2799,3.8342 18.7766,3.0418 1.0838-.344 2.5114-.2036 3.1725.3119s7.952,1.4917 16.202,2.1693c9.2482.7595 15.8493,1.7739 17.2148,2.6453 1.2182.7773 3.7791,1.4133 5.691,1.4133s3.743.4317 4.0691.9594 2.7594.8651 5.4073.75 5.8951.3203 7.2161.9677 5.9917,1.6724 10.3795,2.2778 8.4204,1.5433 8.9613,2.0842 1.0009,4.4659 1.0222,8.7222c.029,5.7746.3662,7.6718 1.3292,7.4752 .7098-.1449 2.1742.2094 3.2544.7875 1.6454.8806 2.1512.6396 3.12-1.4865 .6358-1.3956 1.4214-2.5506 1.7456-2.5667s4.1895-.1769 8.5895-.3575 8.8104-.6744 9.8009-1.0973c1.8995-.8111 5.7769,2.0745 8.0409,5.984 .8349,1.4417 1.2977,21.9578 1.6582,73.5l.5,71.5 19.7828.2712 19.7828.2713 .9424,2.4787 .9425,2.4788h16.4657c9.0561,0 16.7067-.3899 17.0012-.8664s.5689-23.8766.6096-52c.052-35.7366.3977-51.1336 1.1486-51.1336 .6537,0 .8459-1.1425.4908-2.9178-.4047-2.0236-.01-3.6507 1.2974-5.3091 1.0345-1.3152 2.0284-3.9397 2.2086-5.8322l.3276-3.4409 18.4566-.5 18.4566-.5 .8261-3.9827c.4544-2.1905 1.2472-4.4039 1.762-4.9186 .5285-.5286 8.6743-.8375 18.7172-.7099 15.9745.2029 18.2387.448 22.2815,2.4116 2.475,1.2021 7.2,2.4138 10.5,2.6926l6,.507 1.5135,4.5c2.2019,6.5466 2.3552,6.6705 9.2141,7.4438 3.4498.389 6.9651,1.3323 7.8117,2.0961 2.0612,1.8596 51.2572,2.2888 53.4531.4664 .7876-.6537 1.5407-3.4455 1.7081-6.3322 .2805-4.8367.4891-5.2033 3.2995-5.8003 3.8981-.8279 22.3315-.8374 29.9246-.015 5.7563.6233 5.9963.7694 8.4473,5.1415 1.9372,3.4557 2.6508,6.4725 3.0753,13l.5528,8.5 49.5.6172c27.225.3395 50.7441.9557 52.2647,1.3694 3.2736.8906 3.8981,1.7197 5.2815,7.0114l1.0463,4.002 25.4537.6146c13.9996.338 26.5788.8931 27.9538,1.2336s9.0249.756 17,.9233l14.5.3043 .5,14.9621 .5,14.9621h8.5 8.5l.2611-40.6368c.2215-34.4681.4862-40.8236 1.7438-41.8673 1.0227-.8487 7.7671-1.37 21.7388-1.68 11.141-.2473 20.7967-.6219 21.4572-.8325 .7221-.2303 1.3202-2.8952 1.5-6.6832l.2991-6.3002 40.5-.1064c22.275-.058 40.95.2207 41.5.6206s10.45,1.2677 22,1.9287 21.9,1.2816 23,1.3794c1.5883.1411 2.1029,1.0942 2.5,4.6303l.5,4.4526 4.2183.101c2.6239.063 4.4076-.3918 4.7187-1.2026 .275-.717 1.404-1.3036 2.5085-1.3036s2.772-1.1656 3.7055-2.5902c1.3579-2.0724 2.2525-2.4791 4.4753-2.0345 1.5346.3069 3.9908-.073 5.4872-.8498 1.4899-.773 10.6239-9.0022 20.2977-18.2871 20.0582-19.2517 27.7837-26.2384 29.0133-26.2384 1.7312,0 10.0802,7.7906 20.362,19 5.8016,6.325 14.7715,15.9469 19.9333,21.3819 8.6563,9.1147 9.5452,9.7818 11.4501,8.5922 3.0909-1.9303 4.9708-.6224 5.705,3.9691 .489,3.0577 1.2959,4.4053 3.1415,5.2462 3.0056,1.3695 3.0813,2.2353.4836,5.5377-1.6514,2.0995-2,4.0568-2,11.2309v8.6882l4.826,5.1674c5.0798,5.4394 5.8725,6.7412 8.8348,14.5098 1.3925,3.6519 2.6199,5.1539 5.0536,6.1841 4.3807,1.8544 5.4999,6.0908 2.2947,8.6862-1.2609,1.021-1.9873,2.1614-1.6144,2.5344s3.9622.8032 7.9761.9562c11.8364.4511 14.8681,1.3811 15.802,4.8473 .44,1.6326.7921,31.0569.7825,65.3873-.01,35.8819.3669,62.8033.8865,63.3229 .4971.4971 2.4236.7586 4.281.581l3.3772-.3228 .5-8 .5-8 17.5-.5 17.5-.5 .5-3.5c.4012-2.8086.9939-3.5661 3-3.8347 1.375-.184 2.8393-.6584 3.2541-1.054s.7586-23.4201.7641-51.1654c.01-49.4648.1538-52.2309 3.3764-64.8662 1.3285-5.2092 3.1978-6.2821 4.5856-2.6319l.9924,2.6104 13.2637-.2791 13.2637-.2791 .5-10.5 .5-10.5 19.5-.5 19.5-.5 .642-41.3019c.5334-34.3204.8915-41.5889 2.118-43 1.8978-2.1833 2.9713-12.5669 1.4558-14.0823-.6138-.6137-2.3208-1.1158-3.7934-1.1158-2.9701,0-5.7772-2.5658-4.33-3.9577 .4991-.4801 2.0326-1.0236 3.4076-1.2076 2.4209-.3241 2.5227-.651 3.2194-10.3347 .3957-5.5 1.0708-13.375 1.5-17.5l.7806-7.5 8.5-.6508c4.6749-.3579 12.917-.6954 18.3157-.75 5.3987-.055 10.6332-.5367 11.6323-1.0714 1.1619-.6218 2.0726-2.6796 2.527-5.7099 .5561-3.7081.9165-4.3697 1.6582-3.0444 .5212.9314.817,2.9224.6572,4.4244-.2094,1.9697.2108,2.8336 1.5076,3.0991 2.7548.564 4.702-1.6803 4.702-5.4194 0-1.8577.45-3.3776 1-3.3776s1,1.5484 1,3.441 .5131,3.7581 1.1402,4.1456 6.5343,1.049 13.1271,1.4699c9.4973.6062 12.8432.4609 16.1098-.6997 2.5732-.9143 6.037-1.2733 9.2155-.9552 2.801.2803 6.401.1613 8-.2645 2.9022-.7727 2.9084-.7913 3.4809-10.4791 .9102-15.4019 4.5628-16.1912 5.6197-1.2144 .6026,8.5382.6946,8.7956 3.4932,9.7712 1.5809.5511 3.5473,2.3032 4.3697,3.8936 1.4486,2.8015 1.7516,2.8983 9.7195,3.1069 4.5234.1184 10.0243.1783 12.2244.1331 2.2-.045 15.2219-.2709 28.9377-.5014l24.9377-.419 .804-2.964c.4424-1.6302.5209-6.4192.1746-10.6423-.6243-7.6134-.5999-7.7191 2.8825-12.5 9.5701-13.138 12.1178-24.8461 9.5357-43.8217-.2581-1.8956.5367-2.0433 15.2277-2.8295 19.67-1.0526 18.6875-.089 18.9114-18.5416 .1198-9.8762.5365-13.9724 1.5354-15.0921 .7539-.8452 1.5244-2.6618 1.712-4.0368 .2564-1.8783 1.0251-2.5787 3.0912-2.8164 2.1477-.2471 2.75-.8418 2.75-2.7148 0-1.4315.8676-2.8628 2.152-3.5502 3.1909-1.7077 24.4854-2.007 29.348-.4125 3.9283,1.2882 14.8739,2.5937 21.2221,2.5312 2.4148-.024 3.7579.6928 5.3599,2.8597 1.9233,2.6014 2.7034,2.8888 7.7778,2.8656 6.5308-.03 18.374.7248 43.6402,2.7812 9.9.8057 23.4,1.6395 30,1.8529l12,.3879v12.1424c0,11.9436.044,12.1631 2.5,13.4013 2.1007,1.0591 2.4968,1.9661 2.4968,5.7153 0,5.5254.9901,7.2996 3.3647,6.0289 1.058-.5663 2.3114-.5734 3.1893-.018 .7952.5032 3.6502.9218 6.344.9302l4.898.015-.5812,8.9717c-.8164,12.6008-.6312,12.7705 14.6808,13.4546 6.5426.2924 12.1193.7552 12.3925,1.0285 .8754.8753-1.7896,3.3288-4.3003,3.9589-4.0076,1.0058-4.9004,4.096-5.2253,18.0863-.1661,7.15-.4788,17.5-.6949,23-.8942,22.7567-1.5756,44.2512-2.0605,65-.2828,12.1-.7487,29.425-1.0354,38.5-1.719,54.4185-2.8516,170.5383-1.7849,183l.8132,9.5 12.1542.28 12.1542.28 2.4805,3.2521c1.3643,1.7887 2.65,4.1377 2.8572,5.22 .264,1.3795 1.4198,2.1174 3.8653,2.4679 3.098.444 3.5446.8918 3.9886,4l.5,3.5h30.5 30.5l.5-9 .5-9 4-.5 4-.5 .2988-6.2933c.2618-5.5119.585-6.4021 2.6033-7.1695 2.2677-.8621 2.3146-1.1924 2.9427-20.7067 .351-10.9068.9826-21.6022 1.4035-23.7676 .8788-4.5219-1.5092-4.0317 24.1604-4.9595 7.9248-.2864 14.843-.9551 15.3739-1.486 1.0817-1.0817 4.0499-78.2978 7.2119-187.6174 .2863-9.9.982-33.975 1.546-53.5s1.193-47.425 1.3979-62c.205-14.575.9109-40.45 1.5688-57.5 1.3222-34.2646 1.1319-33.46 7.9339-33.5439 1.9574-.024 5.3589-.753 7.5589-1.6196s5.3181-1.5338 6.9291-1.4824c3.6498.1165 5.5709-1.4069 5.5709-4.4175 0-1.2752.4364-2.5883.9698-2.9179 .9688-.5988 12.6428-2.1664 23.0302-3.0926 7.555-.6737 8-.9256 8-4.5287 0-1.7409.4621-4.7926 1.0269-6.7814s1.3522-13.0561 1.75-24.594l.7231-20.9781 2.5-.7043c1.375-.3875 10.375-1.6455 20-2.7956 30.6182-3.6586 47.29-6.0413 48.4111-6.9187 .5989-.4687 5.4844-1.1271 10.8568-1.4631s10.6302-1.0725 11.6842-1.6366 3.8585-1.0257 6.2322-1.0258c3.747-.0002 10.0475-.9386 34.3157-5.1114 2.75-.4729 7.7-1.16 11-1.527s6.9-1.196 8-1.8422c2.7557-1.6188 35.8084-1.9526 43.5002-.4394 3.246.6386 7.4616.8685 9.368.5109 4.4107-.8274 4.5117-1.3987 5.2361-29.5907 .3038-11.825.6718-22.625.8178-24s.3358-8.6015.4217-16.0589c.1894-16.4377.6109-17.3267 8.3048-17.5155 2.9433-.072 14.3514-.4217 25.3514-.7765 52.4361-1.6916 66.7151-1.996 103-2.1957 71.5597-.3938 80.95-.582 82.2346-1.6481 .6978-.5791 2.6827-.7424 4.5062-.3707 1.7926.3653 5.0592.7001 7.2592.7439 10.6076.2113 136.1597-1.35 137.25-1.7067 .6875-.225 1.25-1.3 1.25-2.3889 0-1.1196 3.7468-5.9172 8.6228-11.041l8.6228-9.0611 47.6272.2596 47.6272.2596 .2726,211.5c.1781,138.1804-.077,214.1-.7363,219-1.0611,7.8882-1.9954,35.7659-2.4222,72.28-.2467,21.1021-.3224,21.8274-2.4344,23.3067-1.1988.8397-2.1797,1.8511-2.1797,2.2475 0,1.0754 12.0438,6.0226 15.5,6.3669l3,.2989v10.1993c0,5.6096.4534,10.653 1.0075,11.2075s5.0542,1.1399 10,1.3007l8.9925.2925-.1873,57.9142c-.1243,38.4188-.5773,60.2261-1.3458,64.7821-.888,5.2643-.8819,7.2012.026,8.2949 .7517.9058.918,2.6287.4553,4.7178-.991,4.4748-.6758,40.9632.3629,42.0019 .4569.4569 10.2489.7089 21.7599.5599l20.9292-.2708 .5-3.9218c.5507-4.3197 2.0167-5.468 3.9724-3.1115 1.6149,1.9458 3.9217,1.9729 4.6578.055 .3406-.8877 2.5602-1.743 5.5538-2.1401 2.7425-.3638 5.166-1.1609 5.3857-1.7713s.6167-24.0599.8824-52.1099 .835-54.825 1.2654-59.5l.7825-8.5 14.5-.5c7.975-.275 41.725-.275 75,0l60.5.5 .5,23.5 .5,23.5 26.75.2663 26.75.2664v108.9364 108.9363l-299.75.5868c-164.8625.3227-321.8.5619-348.75.5315s-515.2-.261-1085-.5125c-885.1524-.3907-1036.4367-.254-1038.9999.9386-5.4093,2.517-7.8423,2.6256-12.3592.5517v-.0004zm1495.6474-565.9288c1.1902-1.6101 3.1874-3.0825 4.438-3.272 2.2149-.3357 2.222-.3731.2738-1.4416-3.1025-1.7017-23.5-2.4601-23.5-.8738 0,.6984.6955,1.847 1.5454,2.5525s1.3286,1.8483 1.0633,2.5397c-.8475,2.2083 6.5783,3.547 7.8913,1.4225 .9667-1.5642 4.5-1.1716 4.5.5 0,2.3187 1.4119,1.7867 3.7882-1.4273zm35.2118-.1565c0-4.0418-12.0933-5.472-12.8434-1.5189-.3151,1.66.091,1.8243 3.2417,1.3129 2.0605-.3344 3.6017-.1697 3.6017.3849 0,1.1244 4.1403,2.8819 5.25,2.2285 .4125-.2429.75-1.3262.75-2.4074zm-68.8925-2.3497c1.2175.7524 8.8925-2.4404 8.8925-3.6993 0-.456-1.0126-1.0609-2.25-1.3442-3.3136-.7587-17.938-1.3881-19.3815-.8342-2.1507.8253-.2754,3.3112 2.4979,3.3112 1.5795,0 3.1636.8183 3.9159,2.023 1.0261,1.6431 1.6385,1.8222 3.2612.9537 1.0988-.588 2.4776-.7727 3.064-.4102zm48.3925-.6361c0-.7717-.7875-1.5547-1.75-1.74-1.7237-.332-2.4364,1.7899-1.0625,3.1638 1.0481,1.0482 2.8125.155 2.8125-1.4238zm-621.5,111.5696c0-1.03.6554-1.5204 1.75-1.3096 .9625.1853 1.75.7747 1.75,1.3096s-.7875,1.1243-1.75,1.3096c-1.0946.2108-1.75-.2796-1.75-1.3096z"/>
 </g>
</svg>
